<svg width="406" height="306" viewBox="0 0 406 306" fill="none" xmlns="http://www.w3.org/2000/svg">
<path d="M231.136 255.657C228.583 255.686 226.039 255.344 223.584 254.642C217.109 252.693 211.313 247.263 207.699 239.762C204.462 233.043 203.162 225.644 201.914 218.447C201.901 218.383 201.901 218.317 201.915 218.253C201.928 218.189 201.955 218.128 201.993 218.075C202.031 218.021 202.08 217.976 202.136 217.943C202.192 217.909 202.255 217.887 202.32 217.879C202.383 217.867 202.448 217.868 202.511 217.882C202.574 217.895 202.634 217.921 202.687 217.958C202.74 217.995 202.785 218.042 202.819 218.096C202.854 218.151 202.877 218.211 202.888 218.275C204.127 225.38 205.406 232.708 208.583 239.305C212.084 246.563 217.657 251.79 223.868 253.668C228.385 255.018 233.308 254.683 237.957 254.135C247.914 252.957 253.983 249.872 256.531 244.715C256.622 244.512 256.714 244.33 256.775 244.157C255.181 244.604 253.608 245.172 252.065 245.751C250.786 246.218 249.467 246.695 248.147 247.111C241.725 249.126 234.913 249.572 228.284 248.41C225.086 247.842 223.138 246.299 223.067 244.289C222.996 242.279 224.731 240.676 227.827 239.782C236.309 237.317 245.295 237.152 253.862 239.305C256.298 239.914 257.637 240.929 257.922 242.401C257.952 242.562 257.972 242.725 257.983 242.888C258.368 242.797 258.754 242.716 259.15 242.645C263.271 241.914 267.574 242.33 271.736 242.726C277.643 243.294 283.226 243.832 288.26 241.356C288.379 241.3 288.514 241.293 288.638 241.337C288.761 241.381 288.863 241.471 288.92 241.589C288.949 241.647 288.967 241.71 288.971 241.775C288.976 241.84 288.968 241.905 288.947 241.966C288.926 242.027 288.893 242.084 288.85 242.133C288.807 242.181 288.755 242.221 288.696 242.249C283.408 244.837 277.43 244.279 271.644 243.711C267.584 243.315 263.311 242.909 259.322 243.619C258.835 243.7 258.307 243.812 257.871 243.924C257.752 244.373 257.585 244.809 257.374 245.223C254.674 250.704 248.34 253.962 238.038 255.19C235.748 255.483 233.444 255.638 231.136 255.657ZM241.722 238.767C237.113 238.769 232.527 239.422 228.101 240.706C226.863 241.061 223.98 242.137 224.041 244.238C224.102 246.339 227.421 247.283 228.436 247.415C234.904 248.57 241.555 248.159 247.833 246.218C249.132 245.812 250.441 245.335 251.7 244.878C253.435 244.238 255.201 243.589 257.018 243.112C257.039 242.94 257.039 242.766 257.018 242.594C256.785 241.518 255.679 240.757 253.638 240.239C249.742 239.259 245.74 238.765 241.722 238.767Z" fill="#E6E7E8"/>
<path d="M350.672 100.322H284.606C281.938 100.322 279.775 102.485 279.775 105.153V246.441C279.775 249.109 281.938 251.272 284.606 251.272H350.672C353.341 251.272 355.504 249.109 355.504 246.441V105.153C355.504 102.485 353.341 100.322 350.672 100.322Z" fill="#F9FFFD"/>
<path d="M350.672 251.76H284.606C283.196 251.757 281.845 251.196 280.848 250.199C279.851 249.202 279.29 247.851 279.287 246.441V105.143C279.29 103.733 279.851 102.382 280.848 101.385C281.845 100.388 283.196 99.8268 284.606 99.8242H350.672C352.084 99.8242 353.438 100.384 354.437 101.381C355.436 102.378 355.998 103.731 356.001 105.143V246.441C355.998 247.852 355.436 249.205 354.437 250.202C353.438 251.199 352.084 251.76 350.672 251.76ZM284.606 100.809C283.457 100.809 282.354 101.265 281.541 102.078C280.729 102.891 280.272 103.993 280.272 105.143V246.441C280.272 247.59 280.729 248.693 281.541 249.506C282.354 250.318 283.457 250.775 284.606 250.775H350.672C351.822 250.775 352.924 250.318 353.737 249.506C354.55 248.693 355.006 247.59 355.006 246.441V105.143C355.006 103.993 354.55 102.891 353.737 102.078C352.924 101.265 351.822 100.809 350.672 100.809H284.606Z" fill="#131318"/>
<path d="M351.525 113.973H283.753V230.14H351.525V113.973Z" fill="#E26160"/>
<path d="M324.089 235.794H311.189C309.552 235.794 308.225 237.121 308.225 238.757V243.7C308.225 245.337 309.552 246.664 311.189 246.664H324.089C325.726 246.664 327.053 245.337 327.053 243.7V238.757C327.053 237.121 325.726 235.794 324.089 235.794Z" fill="#F9FFFD"/>
<path d="M324.079 247.151H311.199C310.281 247.151 309.401 246.787 308.752 246.138C308.102 245.489 307.738 244.608 307.738 243.69V238.768C307.738 237.85 308.102 236.969 308.752 236.32C309.401 235.671 310.281 235.306 311.199 235.306H324.079C324.535 235.305 324.986 235.394 325.407 235.567C325.828 235.74 326.211 235.995 326.533 236.317C326.856 236.638 327.112 237.02 327.286 237.441C327.461 237.861 327.551 238.312 327.551 238.768V243.69C327.548 244.609 327.181 245.489 326.53 246.138C325.88 246.787 324.998 247.151 324.079 247.151ZM311.199 236.291C310.542 236.291 309.912 236.552 309.448 237.016C308.983 237.481 308.722 238.111 308.722 238.768V243.69C308.722 244.347 308.983 244.977 309.448 245.441C309.912 245.906 310.542 246.167 311.199 246.167H324.079C324.736 246.167 325.366 245.906 325.831 245.441C326.295 244.977 326.556 244.347 326.556 243.69V238.768C326.556 238.111 326.295 237.481 325.831 237.016C325.366 236.552 324.736 236.291 324.079 236.291H311.199Z" fill="#E6E7E8"/>
<path d="M324.485 107.325H305.2C305.136 107.326 305.071 107.315 305.011 107.291C304.95 107.267 304.896 107.231 304.849 107.186C304.803 107.141 304.766 107.086 304.741 107.027C304.716 106.967 304.703 106.903 304.703 106.838C304.703 106.706 304.755 106.579 304.849 106.486C304.942 106.393 305.068 106.34 305.2 106.34H324.485C324.55 106.34 324.614 106.353 324.674 106.378C324.734 106.404 324.788 106.44 324.833 106.487C324.879 106.533 324.915 106.588 324.938 106.648C324.962 106.709 324.974 106.773 324.973 106.838C324.974 106.902 324.962 106.966 324.938 107.026C324.914 107.086 324.878 107.14 324.833 107.185C324.787 107.231 324.733 107.267 324.673 107.291C324.614 107.315 324.55 107.326 324.485 107.325Z" fill="#E6E7E8"/>
<path d="M329.773 107.325H327.185C327.056 107.325 326.932 107.274 326.841 107.182C326.749 107.091 326.698 106.967 326.698 106.838C326.698 106.708 326.749 106.583 326.84 106.49C326.931 106.397 327.055 106.343 327.185 106.34H329.773C329.905 106.34 330.032 106.393 330.125 106.486C330.218 106.579 330.271 106.706 330.271 106.838C330.271 106.903 330.258 106.967 330.233 107.027C330.208 107.086 330.171 107.141 330.125 107.186C330.078 107.231 330.023 107.267 329.963 107.291C329.903 107.315 329.838 107.326 329.773 107.325Z" fill="#E6E7E8"/>
<path d="M342.918 186.962H292.32C291.313 186.962 290.348 186.562 289.636 185.85C288.924 185.138 288.524 184.173 288.524 183.166V158.177C288.523 157.677 288.62 157.182 288.81 156.721C289 156.259 289.28 155.839 289.632 155.486C289.985 155.132 290.404 154.852 290.865 154.66C291.326 154.469 291.821 154.37 292.32 154.37H342.877C343.887 154.37 344.855 154.771 345.569 155.485C346.282 156.199 346.683 157.167 346.683 158.177V183.166C346.681 184.167 346.284 185.126 345.579 185.836C344.875 186.547 343.918 186.951 342.918 186.962ZM292.32 155.365C291.574 155.365 290.859 155.661 290.332 156.188C289.805 156.716 289.508 157.431 289.508 158.177V183.166C289.508 183.911 289.805 184.627 290.332 185.154C290.859 185.681 291.574 185.977 292.32 185.977H342.877C343.623 185.977 344.338 185.681 344.865 185.154C345.392 184.627 345.689 183.911 345.689 183.166V158.177C345.689 157.431 345.392 156.716 344.865 156.188C344.338 155.661 343.623 155.365 342.877 155.365H292.32Z" fill="#F9FFFD"/>
<path d="M289.052 184.089C288.95 184.088 288.851 184.054 288.769 183.994C288.686 183.934 288.624 183.851 288.591 183.754C288.558 183.658 288.555 183.554 288.583 183.456C288.611 183.358 288.668 183.271 288.747 183.206L313.797 163.383C313.894 163.31 314.015 163.274 314.137 163.283C314.259 163.293 314.373 163.346 314.457 163.434L329.408 178.943C329.5 179.037 329.552 179.162 329.552 179.294C329.552 179.425 329.5 179.551 329.408 179.644C329.363 179.689 329.309 179.725 329.25 179.75C329.191 179.774 329.127 179.787 329.063 179.787C328.999 179.787 328.935 179.774 328.876 179.75C328.817 179.725 328.763 179.689 328.718 179.644L314.082 164.419L289.377 183.968C289.287 184.048 289.171 184.091 289.052 184.089Z" fill="#F9FFFD"/>
<path d="M346.227 179.116C346.157 179.115 346.088 179.099 346.025 179.069C345.962 179.04 345.906 178.997 345.861 178.943L337.559 169.534L328.068 177.462C327.969 177.545 327.84 177.585 327.711 177.574C327.581 177.563 327.462 177.5 327.378 177.401C327.295 177.301 327.254 177.172 327.266 177.043C327.277 176.913 327.339 176.794 327.439 176.71L337.295 168.469C337.386 168.38 337.508 168.33 337.635 168.33C337.762 168.33 337.884 168.38 337.975 168.469L346.592 178.243C346.637 178.288 346.674 178.342 346.698 178.401C346.723 178.461 346.735 178.524 346.735 178.588C346.735 178.652 346.723 178.716 346.698 178.775C346.674 178.834 346.637 178.888 346.592 178.933C346.55 178.991 346.495 179.037 346.431 179.069C346.368 179.101 346.298 179.117 346.227 179.116Z" fill="#F9FFFD"/>
<path d="M329.053 167.616C328.291 167.618 327.546 167.394 326.912 166.972C326.278 166.55 325.783 165.949 325.491 165.246C325.198 164.543 325.121 163.768 325.269 163.021C325.417 162.274 325.784 161.588 326.323 161.049C326.861 160.51 327.548 160.144 328.295 159.996C329.042 159.848 329.816 159.925 330.52 160.217C331.223 160.509 331.824 161.004 332.245 161.638C332.667 162.272 332.892 163.018 332.89 163.779C332.887 164.796 332.482 165.77 331.763 166.489C331.044 167.208 330.07 167.613 329.053 167.616ZM329.053 160.917C328.486 160.915 327.932 161.081 327.46 161.394C326.988 161.708 326.619 162.154 326.401 162.677C326.183 163.2 326.125 163.776 326.234 164.331C326.343 164.887 326.615 165.398 327.015 165.8C327.415 166.201 327.925 166.475 328.481 166.586C329.036 166.697 329.612 166.641 330.136 166.425C330.659 166.208 331.107 165.841 331.422 165.371C331.737 164.9 331.905 164.346 331.905 163.779C331.905 163.022 331.605 162.295 331.07 161.759C330.536 161.222 329.81 160.92 329.053 160.917Z" fill="#F9FFFD"/>
<path d="M296.258 211.231H293.528C291.611 211.231 290.057 212.785 290.057 214.702V218.965C290.057 220.882 291.611 222.436 293.528 222.436H296.258C298.175 222.436 299.729 220.882 299.729 218.965V214.702C299.729 212.785 298.175 211.231 296.258 211.231Z" fill="#F9FFFD"/>
<path d="M311.422 211.231H308.692C306.775 211.231 305.221 212.785 305.221 214.702V218.965C305.221 220.882 306.775 222.436 308.692 222.436H311.422C313.339 222.436 314.894 220.882 314.894 218.965V214.702C314.894 212.785 313.339 211.231 311.422 211.231Z" fill="#F9FFFD"/>
<path d="M326.586 211.231H323.856C321.939 211.231 320.385 212.785 320.385 214.702V218.965C320.385 220.882 321.939 222.436 323.856 222.436H326.586C328.504 222.436 330.058 220.882 330.058 218.965V214.702C330.058 212.785 328.504 211.231 326.586 211.231Z" fill="#F9FFFD"/>
<path d="M341.751 211.231H339.02C337.103 211.231 335.549 212.785 335.549 214.702V218.965C335.549 220.882 337.103 222.436 339.02 222.436H341.751C343.668 222.436 345.222 220.882 345.222 218.965V214.702C345.222 212.785 343.668 211.231 341.751 211.231Z" fill="#F9FFFD"/>
<path d="M345.506 123.656H289.772C289.708 123.658 289.643 123.646 289.583 123.622C289.523 123.598 289.468 123.563 289.421 123.517C289.375 123.472 289.338 123.418 289.313 123.358C289.288 123.298 289.275 123.234 289.275 123.169C289.275 123.037 289.327 122.911 289.421 122.817C289.514 122.724 289.64 122.672 289.772 122.672H345.506C345.638 122.672 345.764 122.724 345.858 122.817C345.951 122.911 346.003 123.037 346.003 123.169C346.003 123.234 345.99 123.298 345.965 123.358C345.94 123.418 345.903 123.472 345.857 123.517C345.811 123.563 345.756 123.598 345.696 123.622C345.635 123.646 345.571 123.658 345.506 123.656Z" fill="#F9FFFD"/>
<path d="M345.506 131.512H289.772C289.638 131.512 289.509 131.459 289.413 131.364C289.318 131.269 289.265 131.14 289.265 131.005C289.265 130.87 289.318 130.741 289.413 130.646C289.509 130.551 289.638 130.497 289.772 130.497H345.506C345.641 130.497 345.77 130.551 345.865 130.646C345.96 130.741 346.013 130.87 346.013 131.005C346.013 131.14 345.96 131.269 345.865 131.364C345.77 131.459 345.641 131.512 345.506 131.512Z" fill="#F9FFFD"/>
<path d="M345.506 139.369H289.772C289.64 139.369 289.514 139.316 289.421 139.223C289.327 139.13 289.275 139.003 289.275 138.871C289.275 138.806 289.288 138.742 289.313 138.682C289.338 138.623 289.375 138.568 289.421 138.523C289.468 138.478 289.523 138.442 289.583 138.418C289.643 138.394 289.708 138.383 289.772 138.384H345.506C345.571 138.383 345.635 138.394 345.696 138.418C345.756 138.442 345.811 138.478 345.857 138.523C345.903 138.568 345.94 138.623 345.965 138.682C345.99 138.742 346.003 138.806 346.003 138.871C346.003 139.003 345.951 139.13 345.858 139.223C345.764 139.316 345.638 139.369 345.506 139.369Z" fill="#F9FFFD"/>
<path d="M345.506 147.225H289.772C289.638 147.225 289.509 147.171 289.413 147.076C289.318 146.981 289.265 146.852 289.265 146.717C289.265 146.583 289.318 146.453 289.413 146.358C289.509 146.263 289.638 146.21 289.772 146.21H345.506C345.641 146.21 345.77 146.263 345.865 146.358C345.96 146.453 346.013 146.583 346.013 146.717C346.013 146.852 345.96 146.981 345.865 147.076C345.77 147.171 345.641 147.225 345.506 147.225Z" fill="#F9FFFD"/>
<path d="M345.506 195.884H289.772C289.638 195.884 289.509 195.83 289.413 195.735C289.318 195.64 289.265 195.511 289.265 195.376C289.265 195.242 289.318 195.113 289.413 195.017C289.509 194.922 289.638 194.869 289.772 194.869H345.506C345.641 194.869 345.77 194.922 345.865 195.017C345.96 195.113 346.013 195.242 346.013 195.376C346.013 195.511 345.96 195.64 345.865 195.735C345.77 195.83 345.641 195.884 345.506 195.884Z" fill="#F9FFFD"/>
<path d="M345.506 203.75H289.772C289.708 203.751 289.643 203.74 289.583 203.716C289.523 203.692 289.468 203.656 289.421 203.611C289.375 203.566 289.338 203.511 289.313 203.452C289.288 203.392 289.275 203.328 289.275 203.263C289.275 203.131 289.327 203.004 289.421 202.911C289.514 202.818 289.64 202.765 289.772 202.765H345.506C345.638 202.765 345.764 202.818 345.858 202.911C345.951 203.004 346.003 203.131 346.003 203.263C346.003 203.328 345.99 203.392 345.965 203.452C345.94 203.511 345.903 203.566 345.857 203.611C345.811 203.656 345.756 203.692 345.696 203.716C345.635 203.74 345.571 203.751 345.506 203.75Z" fill="#F9FFFD"/>
<path d="M335.123 47.2878C335.123 47.2878 336.371 41.9692 335.214 38.9445C334.873 38.0915 334.272 37.3681 333.495 36.8777C332.718 36.3873 331.807 36.155 330.89 36.2141C330.89 36.2141 322.486 34.3465 320.06 32.1541L321.156 36.0314C319.694 35.9287 318.266 35.539 316.954 34.8845C316.785 35.5473 316.796 36.2434 316.987 36.9004C317.178 37.5573 317.542 38.151 318.04 38.6197C317.435 38.9096 316.772 39.0602 316.101 39.0602C315.43 39.0602 314.768 38.9096 314.163 38.6197C314.163 38.6197 316.467 44.2732 321.826 43.6947C325.318 43.177 331.499 48.455 335.123 47.2878Z" fill="#F9FFFD"/>
<path d="M333.935 47.9576C332.017 47.9576 329.773 46.9426 327.581 45.9276C325.389 44.9126 323.328 43.8976 321.857 44.1108C316.183 44.7705 313.737 38.8429 313.676 38.782C313.639 38.6864 313.633 38.5818 313.659 38.4827C313.684 38.3835 313.739 38.2946 313.817 38.228C313.895 38.1614 313.991 38.1203 314.093 38.1105C314.195 38.1007 314.297 38.1225 314.386 38.173C315.231 38.6139 316.214 38.7086 317.127 38.4369C316.756 37.913 316.504 37.3152 316.386 36.6844C316.269 36.0537 316.29 35.405 316.447 34.7829C316.463 34.7135 316.495 34.6489 316.541 34.5943C316.587 34.5396 316.645 34.4965 316.71 34.4683C316.776 34.4407 316.847 34.4264 316.919 34.4264C316.99 34.4264 317.061 34.4407 317.127 34.4683C318.185 34.9555 319.305 35.2969 320.456 35.4833L319.552 32.2962C319.524 32.1926 319.53 32.0827 319.568 31.9824C319.606 31.8821 319.676 31.7965 319.766 31.7379C319.857 31.6821 319.964 31.6577 320.07 31.6688C320.177 31.6798 320.276 31.7255 320.354 31.7988C322.547 33.8288 330.088 35.5442 330.9 35.737C331.916 35.6706 332.926 35.9301 333.784 36.4778C334.642 37.0255 335.303 37.8327 335.671 38.782C336.878 41.9082 335.671 47.1862 335.6 47.4095C335.584 47.4915 335.546 47.5676 335.491 47.6301C335.435 47.6926 335.364 47.7391 335.285 47.7648C334.848 47.9011 334.392 47.9662 333.935 47.9576ZM322.202 43.0653C323.866 43.0653 325.876 44.0093 327.997 44.9938C330.423 46.1306 332.93 47.2979 334.706 46.8919C334.94 45.7754 335.721 41.5834 334.757 39.1271C334.453 38.3648 333.915 37.7188 333.22 37.2827C332.525 36.8466 331.709 36.643 330.89 36.7013H330.738C330.433 36.6302 324.11 35.2194 320.862 33.3416L321.582 35.8893C321.603 35.9634 321.606 36.0413 321.592 36.1169C321.578 36.1925 321.547 36.2639 321.501 36.3257C321.455 36.3861 321.394 36.4349 321.326 36.4684C321.257 36.5018 321.182 36.519 321.105 36.5186C319.787 36.4401 318.494 36.1238 317.289 35.5848C317.23 36.0756 317.292 36.5732 317.469 37.0348C317.646 37.4963 317.933 37.9079 318.304 38.2339C318.365 38.288 318.413 38.3556 318.443 38.4315C318.473 38.5073 318.484 38.5892 318.477 38.6704C318.468 38.753 318.439 38.832 318.391 38.8996C318.343 38.9672 318.278 39.0212 318.203 39.0561C317.249 39.4857 316.19 39.6268 315.158 39.4621C316.091 40.9846 318.202 43.5221 321.745 43.1059C321.896 43.082 322.049 43.0684 322.202 43.0653Z" fill="#131318"/>
<path d="M342.217 91.7955C342.217 91.7955 349.546 75.7686 348.653 65.2634C347.759 54.7581 340.878 54.0984 338.502 53.9664C336.127 53.8345 323.47 52.1293 318.852 57.7828C314.234 63.4364 315.432 90.6688 315.432 90.6688L342.217 91.7955Z" fill="#E26160"/>
<path d="M314.894 85.2792C309.504 87.7446 304.356 90.7078 299.516 94.13C295.233 97.0329 292.807 127.676 292.807 127.676C292.807 127.676 293.69 132.599 299.384 131.827L314.376 97.6927C314.376 97.6927 319.725 85.1473 314.894 85.2792Z" fill="#131318"/>
<path d="M298.217 132.375C296.846 132.41 295.506 131.965 294.429 131.116C293.352 130.267 292.606 129.068 292.32 127.727C292.315 127.686 292.315 127.645 292.32 127.605C292.574 124.438 294.898 96.6472 299.242 93.6936C304.117 90.2658 309.299 87.2961 314.721 84.8225C314.778 84.8074 314.837 84.8074 314.894 84.8225C315.273 84.7937 315.654 84.8648 315.997 85.0286C316.341 85.1924 316.636 85.4433 316.853 85.7563C318.751 88.5475 315.249 96.9213 314.823 97.9363L299.831 132.081C299.797 132.157 299.743 132.224 299.675 132.274C299.608 132.323 299.529 132.355 299.445 132.365C299.037 132.396 298.626 132.4 298.217 132.375ZM293.335 127.625C293.447 128.153 294.421 131.837 299.08 131.35L313.96 97.4795C314.975 95.0435 317.411 88.2633 316.061 86.3145C315.949 86.1506 315.797 86.0179 315.619 85.9291C315.442 85.8403 315.244 85.7983 315.046 85.807C309.723 88.2693 304.628 91.1971 299.821 94.5563C296.451 96.7792 293.985 119.099 293.335 127.625Z" fill="#131318"/>
<path d="M342.816 88.4257C342.816 88.4257 321.288 89.0448 316.223 88.3039C316.223 88.3039 315.939 88.3648 312.224 95.2059C308.509 102.047 313.848 133.319 313.848 133.319C313.848 133.319 318.74 138.496 322.608 137.755L327.185 102.098C327.185 102.098 334.991 102.331 339.365 99.2253C342.37 97.043 342.238 92.3842 342.816 88.4257Z" fill="#131318"/>
<path d="M321.816 138.323C317.939 138.323 313.696 133.857 313.483 133.654C313.416 133.584 313.374 133.496 313.361 133.4C313.138 132.121 308.032 101.935 311.788 94.9725C315.543 88.0096 315.848 87.8675 316.122 87.8675H316.294C321.258 88.6084 342.593 87.9994 342.806 87.9893C342.879 87.9848 342.952 87.9971 343.019 88.0251C343.086 88.0532 343.146 88.0964 343.194 88.1513C343.242 88.2062 343.277 88.2713 343.296 88.3418C343.315 88.4122 343.318 88.4861 343.303 88.5577C343.202 89.2885 343.111 90.0497 343.029 90.811C342.654 94.2417 342.268 97.784 339.609 99.6922C335.752 102.453 329.378 102.656 327.622 102.656L323.095 137.775C323.082 137.879 323.037 137.976 322.966 138.052C322.895 138.129 322.801 138.181 322.699 138.201C322.409 138.268 322.113 138.309 321.816 138.323ZM314.305 133.086C314.985 133.776 318.954 137.613 322.161 137.318L326.698 102.037C326.711 101.914 326.771 101.801 326.866 101.721C326.96 101.642 327.082 101.602 327.206 101.611C327.287 101.611 334.889 101.793 339.04 98.8295C341.334 97.175 341.7 93.856 342.085 90.6384C342.146 90.07 342.207 89.4915 342.278 88.9332C338.807 89.0246 321.501 89.4509 316.467 88.8216C316.172 89.2479 315.269 90.679 312.681 95.4394C309.189 101.824 313.909 130.721 314.305 133.086Z" fill="#131318"/>
<path d="M318.842 57.7828C318.842 57.7828 315.432 64.3499 313.422 67.7197C311.5 70.6109 309.366 73.3556 307.038 75.931C307.038 75.931 291.559 81.4323 291.467 81.7267C291.376 82.021 292.929 87.228 292.929 87.228C292.929 87.228 309.169 86.0607 311.849 84.792C314.528 83.5232 319.969 77.281 319.969 77.281L318.842 57.7828Z" fill="#E26160"/>
<path d="M325.145 54.2608L326.069 59.8636C326.646 60.6953 327.506 61.2881 328.489 61.5309C329.472 61.7738 330.51 61.6502 331.408 61.1831C334.95 59.62 334.95 56.9404 334.95 56.9404L333.062 46.5874C333.062 46.5874 329.794 45.3187 328.099 38.9445C328.099 38.9445 319.979 39.5636 320.537 42.5985C320.537 42.5985 320.436 48.3129 321.298 51.094C321.608 51.9113 322.126 52.6336 322.801 53.1891C323.475 53.7446 324.284 54.114 325.145 54.2608Z" fill="#F9FFFD"/>
<path d="M329.418 62.1372C328.676 62.1137 327.95 61.9181 327.296 61.5659C326.643 61.2136 326.08 60.7142 325.653 60.1072C325.62 60.0501 325.596 59.9885 325.582 59.9245L324.709 54.6363C323.818 54.4583 322.989 54.0497 322.305 53.4513C321.621 52.8529 321.106 52.0856 320.811 51.2259C319.928 48.3941 320.019 42.8015 320.019 42.568C319.981 42.2891 320 42.0053 320.077 41.7344C320.154 41.4636 320.286 41.2117 320.466 40.9948C322.06 38.9648 327.429 38.4776 328.038 38.437C328.153 38.4282 328.268 38.4599 328.362 38.5265C328.457 38.5932 328.525 38.6908 328.556 38.8024C330.149 44.801 333.194 46.1002 333.224 46.1103C333.302 46.1402 333.371 46.1894 333.424 46.2534C333.478 46.3173 333.514 46.3939 333.529 46.4757L335.417 56.8287C335.417 57.0419 335.417 59.9651 331.611 61.6196C330.924 61.9429 330.177 62.1192 329.418 62.1372ZM326.536 59.6707C327.058 60.3798 327.818 60.8774 328.677 61.073C329.536 61.2687 330.437 61.1492 331.215 60.7365C334.361 59.3561 334.442 57.0317 334.442 56.9302L332.605 46.9224C331.773 46.4859 329.215 44.73 327.713 39.4723C325.947 39.655 322.283 40.2842 321.237 41.624C321.135 41.7447 321.062 41.8866 321.021 42.0393C320.981 42.192 320.975 42.3518 321.004 42.5071C321.004 42.6593 320.923 48.2723 321.755 50.9519C322.023 51.683 322.481 52.3293 323.082 52.8236C323.684 53.318 324.406 53.6425 325.176 53.7634L325.379 53.8243C325.444 53.8615 325.501 53.9126 325.545 53.9739C325.589 54.0353 325.618 54.1055 325.632 54.1796L326.536 59.6707Z" fill="#131318"/>
<path d="M330.89 46.7904C330.93 46.2661 331.136 45.7682 331.479 45.3694C331.815 45.0109 332.21 44.7122 332.646 44.4864C332.874 44.3419 333.13 44.2484 333.397 44.2123C333.588 44.2106 333.777 44.2451 333.955 44.3138C334.371 44.4436 334.729 44.7124 334.97 45.0751C335.128 45.3897 335.209 45.7379 335.204 46.0901C335.232 46.481 335.205 46.8741 335.123 47.2573C335.035 47.6381 334.872 47.9975 334.643 48.3147C334.415 48.6318 334.126 48.9004 333.793 49.1046C333.119 49.5079 332.315 49.6352 331.55 49.4599" fill="#F9FFFD"/>
<path d="M332.24 50.0689C331.966 50.0657 331.694 50.0317 331.428 49.9674C331.3 49.9361 331.19 49.8556 331.122 49.7433C331.053 49.6311 331.032 49.4964 331.063 49.3685C331.078 49.3055 331.106 49.2462 331.144 49.1941C331.183 49.142 331.232 49.0981 331.287 49.065C331.343 49.0319 331.405 49.0103 331.469 49.0014C331.533 48.9925 331.599 48.9965 331.661 49.0133C332.302 49.1579 332.974 49.0526 333.539 48.7189C334.095 48.3688 334.492 47.8151 334.646 47.1761C334.713 46.8422 334.737 46.5011 334.717 46.1611C334.726 45.8805 334.666 45.6018 334.544 45.3491C334.357 45.0773 334.08 44.8798 333.762 44.7909C333.644 44.7532 333.521 44.7293 333.397 44.7198C333.204 44.7551 333.021 44.8313 332.859 44.9431C332.48 45.1366 332.136 45.3941 331.844 45.7044C331.567 46.021 331.402 46.4209 331.377 46.8412C331.367 46.9722 331.306 47.0941 331.208 47.1811C331.109 47.2682 330.981 47.3137 330.849 47.3081C330.784 47.3042 330.721 47.2874 330.663 47.2587C330.604 47.2299 330.552 47.1897 330.51 47.1405C330.467 47.0913 330.435 47.0341 330.415 46.9722C330.395 46.9104 330.387 46.8451 330.393 46.7803C330.437 46.1483 330.682 45.5472 331.093 45.0649C331.462 44.6516 331.902 44.3078 332.392 44.0499C332.7 43.8593 333.047 43.7413 333.407 43.7048C333.663 43.7042 333.918 43.7488 334.158 43.8368C334.706 44.0011 335.172 44.3628 335.468 44.8518C335.671 45.2436 335.775 45.6791 335.772 46.1205C335.798 46.5557 335.767 46.9924 335.681 47.4197C335.501 48.1785 335.07 48.8546 334.459 49.3389C333.848 49.8231 333.091 50.0874 332.311 50.0892L332.24 50.0689Z" fill="#131318"/>
<path d="M325.754 45.2882C325.754 45.2882 324.232 48.455 324.739 48.8915C325.247 49.3279 326.515 48.8103 326.515 48.8103" fill="#F9FFFD"/>
<path d="M325.389 49.5512C325.054 49.568 324.724 49.4675 324.455 49.267C324.242 49.0944 323.623 48.5869 325.318 45.075C325.375 44.9596 325.474 44.8708 325.595 44.8273C325.716 44.7837 325.85 44.7889 325.967 44.8416C326.027 44.8688 326.08 44.9076 326.124 44.9558C326.168 45.004 326.202 45.0605 326.224 45.122C326.245 45.1836 326.255 45.2489 326.251 45.314C326.247 45.3792 326.23 45.4429 326.201 45.5013C325.707 46.4579 325.365 47.4851 325.186 48.5463C325.595 48.5954 326.01 48.5286 326.383 48.3535C326.505 48.3055 326.64 48.3061 326.761 48.3552C326.882 48.4044 326.979 48.4983 327.033 48.6174C327.058 48.678 327.07 48.743 327.07 48.8085C327.07 48.874 327.056 48.9388 327.031 48.9991C327.006 49.0595 326.968 49.1142 326.922 49.1602C326.875 49.2062 326.82 49.2425 326.759 49.267C326.323 49.4434 325.859 49.5397 325.389 49.5512Z" fill="#131318"/>
<path d="M328.259 45.1567C328.527 45.1295 328.713 44.8045 328.675 44.4308C328.637 44.0572 328.389 43.7763 328.122 43.8035C327.854 43.8307 327.668 44.1557 327.706 44.5293C327.744 44.903 327.991 45.1838 328.259 45.1567Z" fill="#131318"/>
<path d="M324.149 45.8808C324.417 45.8555 324.606 45.5318 324.57 45.1579C324.535 44.784 324.289 44.5014 324.021 44.5267C323.753 44.552 323.565 44.8757 323.6 45.2496C323.636 45.6235 323.881 45.9061 324.149 45.8808Z" fill="#131318"/>
<path d="M326.201 52.038C325.271 52.0183 324.352 51.8291 323.491 51.4797C323.431 51.4544 323.377 51.4173 323.331 51.3707C323.286 51.3241 323.251 51.2689 323.227 51.2084C323.203 51.1478 323.192 51.0832 323.194 51.0182C323.195 50.9533 323.21 50.8893 323.237 50.8301C323.292 50.7128 323.39 50.6212 323.511 50.574C323.632 50.5268 323.766 50.5276 323.886 50.5764C323.886 50.5764 326.191 51.5914 327.743 50.7083C328.15 50.4444 328.49 50.0899 328.737 49.6725C328.983 49.2551 329.13 48.7863 329.164 48.3028C329.186 48.1682 329.26 48.0476 329.371 47.9677C329.481 47.8877 329.619 47.8549 329.753 47.8765C329.888 47.898 330.008 47.9721 330.088 48.0825C330.168 48.1929 330.201 48.3306 330.179 48.4652C330.123 49.0976 329.92 49.708 329.585 50.2475C329.25 50.7869 328.793 51.2402 328.251 51.5711C327.62 51.904 326.913 52.0651 326.201 52.038Z" fill="#131318"/>
<path d="M325.145 54.2608C325.145 54.2608 328.758 54.4841 330.626 52.9717C330.626 52.9717 329.124 58.0467 325.785 58.0467L325.145 54.2608Z" fill="#131318"/>
<path d="M325.815 58.605C325.698 58.606 325.585 58.5641 325.498 58.4875C325.41 58.4108 325.353 58.3045 325.338 58.1888L324.699 54.3521C324.684 54.2781 324.688 54.2018 324.709 54.1294C324.731 54.0571 324.769 53.9908 324.82 53.936C324.87 53.8806 324.931 53.8372 324.999 53.809C325.068 53.7809 325.142 53.7688 325.216 53.7736C325.216 53.7736 328.667 53.9664 330.352 52.5962C330.435 52.5329 330.535 52.4971 330.64 52.494C330.744 52.4909 330.846 52.5207 330.933 52.579C331.019 52.6373 331.085 52.7213 331.121 52.8191C331.157 52.9169 331.161 53.0236 331.134 53.124C331.073 53.3371 329.499 58.5441 325.825 58.605H325.815ZM325.815 54.7784L326.282 57.5798C328.007 57.2855 329.154 55.3976 329.753 54.0984C328.462 54.5647 327.096 54.7917 325.724 54.7683L325.815 54.7784Z" fill="#131318"/>
<path d="M345.222 56.575C348.115 57.0825 359.817 84.1424 355.808 87.228C349.556 92.0493 327.794 87.228 327.794 87.228L329.571 78.834C329.571 78.834 343.557 79.2298 343.781 76.3574C344.004 73.4849 335.66 60.1884 336.736 58.199C337.812 56.2096 345.222 56.575 345.222 56.575Z" fill="#E26160"/>
<path d="M331.073 81.5541C328.75 81.702 326.418 81.5897 324.12 81.2192C322.419 80.8059 320.673 80.6048 318.923 80.6203C316.617 80.7302 314.349 81.2491 312.224 82.153C312.134 82.1814 312.053 82.2341 311.991 82.3052C311.788 82.5894 312.275 82.8736 312.63 82.8838C313.552 82.9017 314.472 82.7855 315.361 82.5387C313.161 83.3513 311.082 84.4576 309.179 85.8273C308.956 85.9795 308.722 86.2231 308.824 86.4667C308.925 86.7103 309.372 86.6697 309.656 86.5378L314.65 84.254C313.354 84.7734 312.154 85.504 311.097 86.416C310.955 86.5479 310.783 86.7205 310.834 86.9133C310.884 87.1062 311.402 87.1874 311.717 87.0351C313.238 86.2743 314.691 85.3846 316.061 84.3758L313.016 86.7509C313.016 86.9945 313.249 87.2077 313.503 87.2178C313.757 87.2018 314.003 87.1177 314.214 86.9742L317.654 84.9442L315.513 86.4464C315.168 86.6799 314.782 87.0656 314.954 87.4614C315.127 87.8573 315.807 87.7659 316.254 87.5731C318.019 86.8078 319.864 86.2426 321.755 85.8882C322.414 85.6734 323.095 85.5338 323.785 85.472C324.848 85.6124 325.897 85.8433 326.921 86.1622C328.484 86.5073 330.037 86.8626 331.59 87.1772" fill="#F9FFFD"/>
<path d="M315.452 88.2227C315.303 88.2256 315.155 88.2015 315.015 88.1517C314.901 88.1097 314.796 88.0448 314.707 87.9611C314.618 87.8774 314.547 87.7764 314.498 87.6644C314.453 87.5655 314.429 87.4584 314.427 87.3498C314.147 87.547 313.815 87.6565 313.473 87.6644C313.335 87.6574 313.2 87.6223 313.076 87.5612C312.952 87.5001 312.842 87.4143 312.752 87.3092C312.695 87.2413 312.647 87.1662 312.61 87.0859C312.397 87.2077 312.173 87.3194 311.95 87.431C311.781 87.5242 311.593 87.5798 311.401 87.5938C311.208 87.6078 311.015 87.58 310.834 87.5122C310.73 87.4637 310.64 87.3915 310.569 87.3016C310.499 87.2117 310.45 87.1066 310.428 86.9946C310.407 86.8941 310.407 86.7905 310.428 86.69L309.879 86.9438C309.567 87.108 309.203 87.1444 308.864 87.0453C308.769 87.0109 308.682 86.957 308.609 86.8871C308.535 86.8172 308.477 86.7328 308.438 86.6393C308.347 86.4465 308.235 85.9491 308.936 85.4517C310.055 84.6441 311.236 83.9247 312.468 83.3C312.288 83.2796 312.115 83.2189 311.962 83.1222C311.809 83.0255 311.68 82.8954 311.585 82.7417C311.529 82.6289 311.506 82.5032 311.516 82.378C311.527 82.2528 311.572 82.1329 311.646 82.0312C311.753 81.8927 311.897 81.7871 312.062 81.7267C314.237 80.8008 316.561 80.2715 318.923 80.1636C320.49 80.1267 322.056 80.2904 323.582 80.6508L324.221 80.7625C326.489 81.1276 328.79 81.24 331.083 81.0974C331.201 81.0973 331.314 81.1426 331.399 81.2239C331.484 81.3052 331.534 81.4163 331.54 81.5338C331.54 81.6526 331.495 81.7669 331.414 81.8537C331.333 81.9404 331.222 81.993 331.103 82.0008C328.746 82.139 326.381 82.0233 324.049 81.6556L323.399 81.5338C321.943 81.1927 320.449 81.0325 318.954 81.0568C316.819 81.1646 314.717 81.6242 312.732 82.4169C313.582 82.4353 314.431 82.3258 315.249 82.0921C315.362 82.0544 315.485 82.0632 315.592 82.1165C315.698 82.1698 315.78 82.2632 315.817 82.3763C315.855 82.4894 315.846 82.6128 315.793 82.7194C315.74 82.826 315.646 82.907 315.533 82.9447C313.42 83.7238 311.417 84.7747 309.575 86.0709L313.3 84.3657C313.686 84.1728 314.071 83.9902 314.467 83.8379C314.576 83.7908 314.7 83.7889 314.81 83.8327C314.92 83.8765 315.009 83.9623 315.056 84.0713C315.103 84.1804 315.105 84.3036 315.061 84.414C315.017 84.5245 314.932 84.6129 314.823 84.66L313.696 85.1777C312.938 85.5728 312.224 86.0456 311.564 86.5885C313.049 85.8454 314.466 84.9724 315.797 83.98C315.844 83.9443 315.898 83.9183 315.955 83.9036C316.012 83.8888 316.072 83.8856 316.131 83.8941C316.189 83.9026 316.246 83.9226 316.296 83.9531C316.347 83.9835 316.391 84.0237 316.426 84.0713C316.462 84.1179 316.489 84.1712 316.505 84.2281C316.52 84.285 316.524 84.3444 316.517 84.4029C316.509 84.4614 316.49 84.5179 316.461 84.569C316.431 84.6201 316.392 84.6648 316.345 84.7006L313.889 86.5683H313.95L317.39 84.5383C317.49 84.4932 317.603 84.4856 317.708 84.5168C317.813 84.5481 317.904 84.6161 317.963 84.7084C318.022 84.8008 318.046 84.9113 318.03 85.0198C318.015 85.1283 317.96 85.2276 317.878 85.2995L315.726 86.8017C315.381 87.0453 315.31 87.228 315.32 87.2483C315.564 87.296 315.816 87.2527 316.03 87.1265C317.831 86.3443 319.714 85.7656 321.643 85.401L322.293 85.2285C322.775 85.0732 323.278 84.9945 323.785 84.995C324.561 85.0558 325.327 85.2057 326.069 85.4416C326.394 85.533 326.708 85.6243 327.013 85.6852L331.682 86.7611C331.739 86.7744 331.793 86.7989 331.841 86.8332C331.889 86.8674 331.929 86.9107 331.961 86.9607C331.992 87.0107 332.013 87.0662 332.022 87.1243C332.032 87.1824 332.03 87.2417 332.017 87.299C332.003 87.3564 331.979 87.4105 331.945 87.4583C331.91 87.5062 331.867 87.5468 331.817 87.5779C331.767 87.609 331.711 87.63 331.653 87.6396C331.595 87.6492 331.536 87.6473 331.479 87.634C329.926 87.2787 328.373 86.9133 326.81 86.619C326.495 86.5479 326.17 86.4566 325.795 86.3652C325.135 86.1537 324.454 86.0142 323.765 85.9491C323.343 85.956 322.924 86.0314 322.526 86.1724C322.293 86.2333 322.059 86.3044 321.816 86.345C319.952 86.709 318.135 87.2774 316.396 88.04C316.096 88.1622 315.775 88.2243 315.452 88.2227Z" fill="#131318"/>
<path d="M320.344 60.158C319.573 60.9395 317.634 73.2413 316.924 79.0471L320.344 60.158Z" fill="#F9FFFD"/>
<path d="M316.924 79.5039H316.863C316.746 79.4887 316.64 79.4278 316.567 79.3347C316.495 79.2415 316.463 79.1235 316.477 79.0065C316.913 75.3931 319.004 60.8888 320.029 59.8433C320.116 59.7758 320.225 59.742 320.335 59.748C320.444 59.754 320.548 59.7995 320.627 59.876C320.706 59.9526 320.755 60.0551 320.765 60.1647C320.774 60.2743 320.744 60.3836 320.679 60.4726C320.019 61.376 318.152 72.7135 317.37 79.1182C317.353 79.2249 317.299 79.3222 317.218 79.3928C317.136 79.4634 317.032 79.5028 316.924 79.5039Z" fill="#131318"/>
<path d="M291.153 90.6283L291.498 92.9323L323.349 97.581L322.811 95.2059L291.153 90.6283Z" fill="#F9FFFD"/>
<path d="M323.349 98.0784H323.278L291.427 93.4195C291.322 93.4034 291.225 93.3544 291.151 93.2796C291.076 93.2047 291.027 93.108 291.011 93.0034L290.666 90.6993C290.651 90.6229 290.656 90.5441 290.679 90.4698C290.702 90.3955 290.742 90.3279 290.798 90.273C290.854 90.22 290.922 90.1798 290.995 90.1553C291.069 90.1308 291.147 90.1225 291.224 90.1309L322.882 94.7187C322.979 94.7328 323.071 94.7762 323.143 94.8433C323.216 94.9104 323.266 94.9979 323.288 95.0942L323.785 97.4795C323.806 97.5557 323.806 97.636 323.787 97.7124C323.767 97.7889 323.728 97.8591 323.673 97.916C323.59 98.0099 323.474 98.0681 323.349 98.0784ZM291.884 92.4959L322.669 96.9923L322.364 95.6424L291.691 91.2068L291.884 92.4959Z" fill="#131318"/>
<path d="M291.153 90.6283C291.153 90.6283 298.4 84.4063 298.643 84.4672C298.887 84.5281 331.458 88.4257 331.458 88.4257L322.77 95.2059L291.153 90.6283Z" fill="#F9FFFD"/>
<path d="M322.77 95.7033L291.082 91.085C290.987 91.07 290.899 91.0286 290.828 90.9658C290.756 90.903 290.703 90.8212 290.676 90.7298C290.648 90.6396 290.648 90.5433 290.675 90.4529C290.702 90.3626 290.755 90.2823 290.828 90.2223C298.278 83.8278 298.44 83.8785 298.755 83.9496C299.242 84.0308 320.405 86.5683 331.519 87.8979C331.617 87.9107 331.709 87.9523 331.783 88.0173C331.857 88.0824 331.91 88.168 331.935 88.2633C331.965 88.3568 331.964 88.4571 331.933 88.55C331.902 88.6429 331.842 88.7237 331.763 88.781L323.115 95.5612C323.07 95.6064 323.016 95.6422 322.957 95.6666C322.897 95.6909 322.834 95.7034 322.77 95.7033ZM292.32 90.2933L322.689 94.6883L330.24 88.7708C320.435 87.5934 300.947 85.2589 298.775 84.9747C298.045 85.4315 294.746 88.2024 292.32 90.2933Z" fill="#131318"/>
<path d="M323.349 97.581L331.661 90.6282L331.458 88.4257L322.811 95.2059L323.349 97.581Z" fill="#F9FFFD"/>
<path d="M323.349 98.0784C323.298 98.088 323.247 98.088 323.196 98.0784C323.115 98.0542 323.042 98.0084 322.985 97.9458C322.927 97.8832 322.888 97.8062 322.872 97.7231L322.334 95.348C322.31 95.2573 322.314 95.1618 322.345 95.0734C322.376 94.9849 322.432 94.9075 322.506 94.8507L331.154 88.04C331.224 87.9849 331.308 87.9498 331.397 87.9383C331.485 87.9268 331.575 87.9394 331.657 87.9747C331.739 88.01 331.81 88.0668 331.863 88.139C331.915 88.2112 331.947 88.2962 331.956 88.3851L332.149 90.5877C332.157 90.6674 332.146 90.7481 332.116 90.8224C332.086 90.8968 332.038 90.9626 331.976 91.014L323.663 97.9769C323.572 98.0442 323.462 98.0798 323.349 98.0784ZM323.349 95.3988L323.643 96.6878L331.134 90.4151L331.042 89.4001L323.349 95.3988Z" fill="#131318"/>
<path d="M291.153 90.6283L285.032 70.1151L318.609 75.8397L322.811 95.2059L291.153 90.6283Z" fill="#F9FFFD"/>
<path d="M322.77 95.7033L291.082 91.085C290.987 91.0724 290.897 91.0319 290.825 90.9687C290.753 90.9055 290.701 90.8224 290.676 90.7298L284.586 70.2267C284.562 70.1461 284.56 70.0608 284.578 69.9789C284.597 69.8969 284.636 69.821 284.691 69.7582C284.747 69.6954 284.818 69.6477 284.897 69.6196C284.976 69.5914 285.061 69.5838 285.144 69.5975L318.71 75.3525C318.806 75.3684 318.895 75.4127 318.965 75.4797C319.036 75.5466 319.085 75.6331 319.106 75.7281L323.288 95.145C323.306 95.2221 323.305 95.3026 323.283 95.379C323.262 95.4553 323.222 95.525 323.166 95.5815C323.113 95.6296 323.05 95.6655 322.981 95.6865C322.913 95.7076 322.841 95.7133 322.77 95.7033ZM291.488 90.1817L322.141 94.6172L318.192 76.266L285.712 70.7342L291.488 90.1817Z" fill="#131318"/>
<path d="M338.381 90.1512H338.299L331.509 88.984C331.396 88.9634 331.293 88.9049 331.218 88.8183C331.142 88.7316 331.098 88.6218 331.093 88.5069L330.88 80.3869C330.874 80.262 330.918 80.1399 331.001 80.0469C331.085 79.9539 331.202 79.8974 331.326 79.8896L343.334 78.6513L337.995 60.2899C337.96 60.1648 337.976 60.031 338.038 59.9172C338.101 59.8034 338.206 59.7186 338.33 59.6809C338.393 59.6622 338.458 59.656 338.523 59.6627C338.588 59.6694 338.651 59.6889 338.709 59.72C338.766 59.7511 338.817 59.7933 338.858 59.844C338.9 59.8948 338.93 59.9532 338.949 60.0159L344.44 78.905C344.461 78.9729 344.466 79.0447 344.456 79.1149C344.445 79.1851 344.419 79.2521 344.379 79.311C344.339 79.371 344.287 79.4218 344.225 79.4603C344.164 79.4987 344.096 79.524 344.024 79.5343L331.844 80.7828L332.047 88.0603L338.442 89.1565C338.508 89.1625 338.573 89.1816 338.632 89.2126C338.692 89.2437 338.744 89.2861 338.787 89.3374C338.83 89.3888 338.862 89.4481 338.882 89.512C338.902 89.5759 338.909 89.643 338.903 89.7097C338.897 89.7763 338.878 89.8411 338.847 89.9004C338.816 89.9597 338.774 90.0123 338.722 90.0552C338.671 90.098 338.612 90.1304 338.548 90.1504C338.484 90.1703 338.417 90.1775 338.35 90.1715L338.381 90.1512Z" fill="#131318"/>
<path d="M293.832 122.205C293.273 121.688 292.687 121.2 292.076 120.743C290.757 119.728 287.925 118.297 287.113 120.632C286.606 122.073 287.387 123.991 287.925 125.321C288.988 127.864 290.607 130.136 292.665 131.969C294.462 133.593 300.186 135.938 299.77 131.411C299.66 130.592 299.398 129.8 298.999 129.076C297.707 126.492 295.957 124.163 293.832 122.205Z" fill="#F9FFFD"/>
<path d="M297.659 134.497C295.71 134.339 293.86 133.572 292.371 132.304C290.261 130.426 288.6 128.099 287.509 125.494C286.961 124.133 286.129 122.093 286.687 120.479C286.786 120.141 286.967 119.832 287.213 119.579C287.459 119.326 287.762 119.137 288.098 119.028C289.752 118.531 291.934 120.043 292.35 120.388C292.971 120.851 293.567 121.346 294.137 121.87C296.308 123.864 298.097 126.237 299.415 128.873C299.838 129.648 300.114 130.495 300.227 131.37C300.389 133.136 299.658 133.898 299.009 134.212C298.588 134.413 298.125 134.511 297.659 134.497ZM288.808 119.83C288.657 119.828 288.507 119.849 288.362 119.891C288.16 119.957 287.978 120.074 287.835 120.231C287.691 120.387 287.589 120.577 287.539 120.784C287.093 122.063 287.844 123.92 288.341 125.148C289.379 127.63 290.961 129.846 292.97 131.634C294.249 132.801 297.253 134.091 298.613 133.41C299.192 133.116 299.425 132.477 299.334 131.452C299.223 130.689 298.975 129.954 298.603 129.279C297.343 126.738 295.623 124.453 293.528 122.54C292.98 122.032 292.401 121.525 291.812 121.109C290.954 120.404 289.911 119.96 288.808 119.83Z" fill="#131318"/>
<path d="M313.168 124.732C312.777 124.459 312.305 124.326 311.828 124.357C311.53 124.428 311.256 124.579 311.037 124.793C310.628 125.215 310.319 125.722 310.132 126.279C309.946 126.836 309.887 127.428 309.961 128.011C310.107 129.174 310.468 130.299 311.026 131.33C312.579 134.557 314.68 137.684 317.797 139.45C318.356 139.782 318.966 140.018 319.603 140.15C325.145 141.165 322.851 135.664 321.491 133.177C319.563 129.638 316.679 126.711 313.168 124.732Z" fill="#F9FFFD"/>
<path d="M320.791 140.698C320.365 140.694 319.941 140.653 319.522 140.576C318.838 140.436 318.183 140.182 317.583 139.825C314.843 138.283 312.569 135.572 310.62 131.533C310.043 130.448 309.665 129.269 309.504 128.051C309.423 127.4 309.492 126.739 309.705 126.118C309.918 125.497 310.269 124.933 310.732 124.468C311.01 124.191 311.363 124.001 311.747 123.92C312.324 123.865 312.901 124.012 313.381 124.336C316.96 126.357 319.905 129.334 321.887 132.933C322.902 134.74 324.353 138.008 323.135 139.724C322.855 140.067 322.494 140.335 322.085 140.505C321.676 140.675 321.232 140.741 320.791 140.698ZM312.021 124.793H311.899C311.687 124.848 311.494 124.961 311.341 125.118C310.98 125.49 310.709 125.939 310.547 126.431C310.385 126.924 310.337 127.446 310.407 127.96C310.545 129.07 310.889 130.144 311.422 131.127C313.28 135.004 315.482 137.582 317.999 139.023C318.513 139.334 319.076 139.554 319.664 139.673C321.055 139.927 321.968 139.754 322.374 139.186C323.166 138.08 322.222 135.451 321.075 133.36C319.187 129.911 316.375 127.057 312.955 125.118C312.674 124.937 312.354 124.825 312.021 124.793Z" fill="#131318"/>
<path d="M310.945 107.325C310.823 107.325 310.705 107.28 310.614 107.197C310.524 107.114 310.468 107 310.458 106.878C310.458 106.655 309.9 101.205 310.834 98.0986C310.852 98.0367 310.882 97.9788 310.922 97.9284C310.962 97.8781 311.012 97.8361 311.069 97.805C311.125 97.7739 311.187 97.7543 311.252 97.7472C311.316 97.7401 311.381 97.7457 311.443 97.7637C311.505 97.7817 311.562 97.8117 311.613 97.8521C311.663 97.8924 311.705 97.9423 311.736 97.9988C311.767 98.0554 311.787 98.1175 311.794 98.1816C311.801 98.2458 311.796 98.3107 311.778 98.3727C310.905 101.296 311.422 106.736 311.432 106.787C311.444 106.917 311.403 107.047 311.32 107.148C311.236 107.248 311.116 107.312 310.986 107.325H310.945Z" fill="#F9FFFD"/>
<path d="M251.497 69.0696H49.8568C45.6245 69.0696 42.1936 72.5006 42.1936 76.7329V215.088C42.1936 219.32 45.6245 222.751 49.8568 222.751H251.497C255.729 222.751 259.16 219.32 259.16 215.088V76.7329C259.16 72.5006 255.729 69.0696 251.497 69.0696Z" fill="#F9FFFD"/>
<path d="M251.497 223.248H49.8568C47.7074 223.235 45.6497 222.375 44.1298 220.855C42.6099 219.335 41.7501 217.278 41.7368 215.128V76.7329C41.7368 74.5794 42.5923 72.514 44.1151 70.9912C45.6379 69.4684 47.7032 68.6129 49.8568 68.6129H251.497C253.65 68.6129 255.716 69.4684 257.238 70.9912C258.761 72.514 259.617 74.5794 259.617 76.7329V215.098C259.621 216.167 259.414 217.226 259.007 218.214C258.601 219.203 258.004 220.102 257.249 220.859C256.495 221.616 255.598 222.217 254.611 222.627C253.624 223.037 252.566 223.248 251.497 223.248ZM49.8568 69.567C47.9554 69.567 46.1316 70.3217 44.7862 71.6652C43.4407 73.0088 42.6834 74.8315 42.6808 76.7329V215.098C42.6834 216.999 43.4407 218.822 44.7862 220.165C46.1316 221.509 47.9554 222.264 49.8568 222.264H251.497C253.396 222.261 255.218 221.505 256.561 220.162C257.904 218.819 258.66 216.997 258.663 215.098V76.7329C258.66 74.8332 257.904 73.0121 256.561 71.6688C255.218 70.3255 253.396 69.5697 251.497 69.567H49.8568Z" fill="#131318"/>
<path d="M251.131 88.9434H50.2121V214.671H251.131V88.9434Z" fill="#131318"/>
<path d="M251.131 215.179H50.2121C50.0775 215.179 49.9484 215.125 49.8532 215.03C49.758 214.935 49.7046 214.806 49.7046 214.671V88.9434C49.7046 88.8088 49.758 88.6797 49.8532 88.5845C49.9484 88.4893 50.0775 88.4359 50.2121 88.4359H251.182C251.317 88.4359 251.446 88.4893 251.541 88.5845C251.636 88.6797 251.69 88.8088 251.69 88.9434V214.671C251.69 214.743 251.675 214.813 251.647 214.878C251.618 214.943 251.576 215.002 251.523 215.049C251.471 215.097 251.409 215.134 251.341 215.156C251.274 215.178 251.202 215.186 251.131 215.179ZM50.75 214.164H250.705V89.4509H50.75V214.164Z" fill="#131318"/>
<path d="M251.131 77.149H50.2121V88.9434H251.131V77.149Z" fill="#E26160"/>
<path d="M251.131 89.4508H50.2121C50.0775 89.4508 49.9484 89.3974 49.8532 89.3022C49.758 89.207 49.7046 89.0779 49.7046 88.9433V77.149C49.7046 77.0144 49.758 76.8854 49.8532 76.7902C49.9484 76.695 50.0775 76.6415 50.2121 76.6415H251.182C251.317 76.6415 251.446 76.695 251.541 76.7902C251.636 76.8854 251.69 77.0144 251.69 77.149V88.9433C251.69 89.0145 251.675 89.0849 251.647 89.15C251.618 89.2152 251.576 89.2736 251.523 89.3214C251.471 89.3693 251.409 89.4055 251.341 89.4278C251.274 89.4501 251.202 89.458 251.131 89.4508ZM50.75 88.4358H250.705V77.6565H50.75V88.4358Z" fill="#E26160"/>
<path d="M90.4974 101.458H73.2424C73.1776 101.46 73.1131 101.448 73.0528 101.424C72.9926 101.4 72.9376 101.365 72.8913 101.319C72.845 101.274 72.8082 101.22 72.7831 101.16C72.758 101.1 72.745 101.036 72.7451 100.971C72.7451 100.839 72.7975 100.713 72.8907 100.619C72.984 100.526 73.1105 100.474 73.2424 100.474H90.4974C90.5623 100.474 90.6264 100.487 90.6862 100.512C90.746 100.537 90.8002 100.574 90.8456 100.62C90.8909 100.666 90.9266 100.721 90.9505 100.782C90.9744 100.842 90.986 100.906 90.9846 100.971C90.986 101.035 90.9743 101.099 90.9503 101.159C90.9263 101.219 90.8905 101.273 90.845 101.319C90.7995 101.364 90.7452 101.4 90.6855 101.424C90.6257 101.448 90.5618 101.46 90.4974 101.458Z" fill="#F9FFFD"/>
<path d="M129.423 101.458H94.9127C94.8483 101.46 94.7843 101.448 94.7246 101.424C94.6648 101.4 94.6106 101.364 94.5651 101.319C94.5195 101.273 94.4837 101.219 94.4597 101.159C94.4357 101.099 94.4241 101.035 94.4254 100.971C94.4241 100.906 94.4357 100.842 94.4596 100.782C94.4835 100.721 94.5191 100.666 94.5645 100.62C94.6099 100.574 94.6641 100.537 94.7238 100.512C94.7836 100.487 94.8478 100.474 94.9127 100.474H129.423C129.555 100.474 129.681 100.526 129.774 100.619C129.868 100.713 129.92 100.839 129.92 100.971C129.92 101.036 129.907 101.1 129.882 101.16C129.857 101.22 129.82 101.274 129.774 101.319C129.727 101.365 129.672 101.4 129.612 101.424C129.552 101.448 129.487 101.46 129.423 101.458Z" fill="#E26160"/>
<path d="M141.349 108.685H106.839C106.704 108.685 106.575 108.632 106.48 108.536C106.385 108.441 106.331 108.312 106.331 108.178C106.331 108.043 106.385 107.914 106.48 107.819C106.575 107.724 106.704 107.67 106.839 107.67H141.349C141.483 107.67 141.613 107.724 141.708 107.819C141.803 107.914 141.856 108.043 141.856 108.178C141.856 108.312 141.803 108.441 141.708 108.536C141.613 108.632 141.483 108.685 141.349 108.685Z" fill="#E26160"/>
<path d="M94.5473 108.685H77.2923C77.1577 108.685 77.0286 108.632 76.9334 108.536C76.8382 108.441 76.7848 108.312 76.7848 108.178C76.7848 108.043 76.8382 107.914 76.9334 107.819C77.0286 107.724 77.1577 107.67 77.2923 107.67H94.5473C94.6819 107.67 94.8109 107.724 94.9061 107.819C95.0013 107.914 95.0548 108.043 95.0548 108.178C95.0548 108.312 95.0013 108.441 94.9061 108.536C94.8109 108.632 94.6819 108.685 94.5473 108.685Z" fill="#F9FFFD"/>
<path d="M98.6073 115.902H81.3523C81.2203 115.902 81.0938 115.849 81.0006 115.756C80.9073 115.663 80.8549 115.536 80.8549 115.404C80.8549 115.34 80.8678 115.275 80.8929 115.216C80.9181 115.156 80.9548 115.102 81.0012 115.056C81.0475 115.011 81.1024 114.975 81.1627 114.951C81.223 114.927 81.2874 114.916 81.3523 114.917H98.6073C98.6716 114.916 98.7356 114.927 98.7953 114.951C98.8551 114.975 98.9093 115.011 98.9548 115.057C99.0004 115.102 99.0362 115.157 99.0602 115.216C99.0842 115.276 99.0958 115.34 99.0944 115.404C99.0958 115.469 99.0842 115.534 99.0603 115.594C99.0364 115.654 99.0008 115.709 98.9554 115.755C98.91 115.802 98.8559 115.839 98.7961 115.864C98.7363 115.889 98.6721 115.902 98.6073 115.902Z" fill="#F9FFFD"/>
<path d="M147.51 115.902H104.362C104.297 115.902 104.233 115.889 104.173 115.864C104.114 115.839 104.06 115.802 104.014 115.755C103.969 115.709 103.933 115.654 103.909 115.594C103.885 115.534 103.874 115.469 103.875 115.404C103.874 115.34 103.885 115.276 103.909 115.216C103.933 115.157 103.969 115.102 104.015 115.057C104.06 115.011 104.115 114.975 104.174 114.951C104.234 114.927 104.298 114.916 104.362 114.917H147.51C147.575 114.916 147.639 114.927 147.7 114.951C147.76 114.975 147.815 115.011 147.861 115.056C147.907 115.102 147.944 115.156 147.969 115.216C147.994 115.275 148.007 115.34 148.007 115.404C148.007 115.536 147.955 115.663 147.862 115.756C147.768 115.849 147.642 115.902 147.51 115.902Z" fill="#E26160"/>
<path d="M102.657 123.118H85.4021C85.272 123.116 85.148 123.062 85.057 122.969C84.9659 122.876 84.9149 122.751 84.9149 122.621C84.9149 122.492 84.9662 122.368 85.0576 122.277C85.149 122.185 85.2729 122.134 85.4021 122.134H102.657C102.722 122.132 102.786 122.144 102.847 122.168C102.907 122.192 102.962 122.228 103.008 122.273C103.055 122.318 103.091 122.372 103.116 122.432C103.142 122.492 103.154 122.556 103.154 122.621C103.154 122.753 103.102 122.879 103.009 122.973C102.916 123.066 102.789 123.118 102.657 123.118Z" fill="#F9FFFD"/>
<path d="M156.432 123.118H105.134C105.002 123.118 104.875 123.066 104.782 122.973C104.689 122.879 104.636 122.753 104.636 122.621C104.636 122.556 104.649 122.492 104.674 122.432C104.7 122.372 104.736 122.318 104.783 122.273C104.829 122.228 104.884 122.192 104.944 122.168C105.004 122.144 105.069 122.132 105.134 122.134H156.432C156.497 122.132 156.561 122.144 156.621 122.168C156.682 122.192 156.737 122.228 156.783 122.273C156.829 122.318 156.866 122.372 156.891 122.432C156.916 122.492 156.929 122.556 156.929 122.621C156.929 122.753 156.877 122.879 156.783 122.973C156.69 123.066 156.564 123.118 156.432 123.118Z" fill="#E26160"/>
<path d="M98.0795 130.335H80.8245C80.6899 130.335 80.5608 130.282 80.4656 130.186C80.3704 130.091 80.317 129.962 80.317 129.828C80.317 129.693 80.3704 129.564 80.4656 129.469C80.5608 129.374 80.6899 129.32 80.8245 129.32H98.0795C98.2141 129.32 98.3431 129.374 98.4383 129.469C98.5335 129.564 98.587 129.693 98.587 129.828C98.587 129.962 98.5335 130.091 98.4383 130.186C98.3431 130.282 98.2141 130.335 98.0795 130.335Z" fill="#F9FFFD"/>
<path d="M129.423 130.335H101.601C101.467 130.335 101.338 130.282 101.243 130.186C101.147 130.091 101.094 129.962 101.094 129.828C101.094 129.693 101.147 129.564 101.243 129.469C101.338 129.374 101.467 129.32 101.601 129.32H129.423C129.557 129.32 129.686 129.374 129.782 129.469C129.877 129.564 129.93 129.693 129.93 129.828C129.93 129.962 129.877 130.091 129.782 130.186C129.686 130.282 129.557 130.335 129.423 130.335Z" fill="#E26160"/>
<path d="M167.871 130.335H140.07C139.935 130.335 139.806 130.282 139.711 130.186C139.616 130.091 139.562 129.962 139.562 129.828C139.562 129.693 139.616 129.564 139.711 129.469C139.806 129.374 139.935 129.32 140.07 129.32H167.891C168.026 129.32 168.155 129.374 168.25 129.469C168.345 129.564 168.399 129.693 168.399 129.828C168.399 129.962 168.345 130.091 168.25 130.186C168.155 130.282 168.026 130.335 167.891 130.335H167.871Z" fill="#E26160"/>
<path d="M98.0795 137.552H80.8245C80.6899 137.552 80.5608 137.498 80.4656 137.403C80.3704 137.308 80.317 137.179 80.317 137.044C80.317 136.91 80.3704 136.781 80.4656 136.685C80.5608 136.59 80.6899 136.537 80.8245 136.537H98.0795C98.2141 136.537 98.3431 136.59 98.4383 136.685C98.5335 136.781 98.587 136.91 98.587 137.044C98.587 137.179 98.5335 137.308 98.4383 137.403C98.3431 137.498 98.2141 137.552 98.0795 137.552Z" fill="#F9FFFD"/>
<path d="M129.423 137.552H105.134C104.999 137.552 104.87 137.498 104.775 137.403C104.68 137.308 104.626 137.179 104.626 137.044C104.626 136.91 104.68 136.781 104.775 136.685C104.87 136.59 104.999 136.537 105.134 136.537H129.423C129.557 136.537 129.686 136.59 129.782 136.685C129.877 136.781 129.93 136.91 129.93 137.044C129.93 137.179 129.877 137.308 129.782 137.403C129.686 137.498 129.557 137.552 129.423 137.552Z" fill="#E26160"/>
<path d="M143.45 137.552H133.523C133.389 137.552 133.26 137.498 133.164 137.403C133.069 137.308 133.016 137.179 133.016 137.044C133.016 136.91 133.069 136.781 133.164 136.685C133.26 136.59 133.389 136.537 133.523 136.537H143.45C143.585 136.537 143.714 136.59 143.809 136.685C143.904 136.781 143.957 136.91 143.957 137.044C143.957 137.179 143.904 137.308 143.809 137.403C143.714 137.498 143.585 137.552 143.45 137.552Z" fill="#E26160"/>
<path d="M98.0795 144.768H80.8245C80.7596 144.77 80.6952 144.758 80.6349 144.734C80.5746 144.71 80.5197 144.675 80.4734 144.629C80.427 144.584 80.3902 144.53 80.3651 144.47C80.34 144.41 80.3271 144.346 80.3271 144.281C80.3271 144.149 80.3795 144.023 80.4728 143.929C80.566 143.836 80.6925 143.784 80.8245 143.784H98.0795C98.1443 143.784 98.2085 143.797 98.2683 143.822C98.328 143.847 98.3822 143.884 98.4276 143.93C98.473 143.976 98.5086 144.031 98.5325 144.092C98.5564 144.152 98.568 144.216 98.5667 144.281C98.568 144.346 98.5564 144.409 98.5324 144.469C98.5084 144.529 98.4726 144.583 98.427 144.629C98.3815 144.674 98.3273 144.71 98.2675 144.734C98.2078 144.758 98.1438 144.77 98.0795 144.768Z" fill="#F9FFFD"/>
<path d="M138.142 144.768H102.616C102.487 144.768 102.363 144.717 102.272 144.626C102.181 144.534 102.129 144.41 102.129 144.281C102.129 144.151 102.18 144.026 102.271 143.933C102.362 143.84 102.486 143.786 102.616 143.784H138.142C138.273 143.784 138.4 143.836 138.493 143.929C138.586 144.023 138.639 144.149 138.639 144.281C138.639 144.346 138.626 144.41 138.601 144.47C138.576 144.53 138.539 144.584 138.493 144.629C138.446 144.675 138.391 144.71 138.331 144.734C138.271 144.758 138.206 144.77 138.142 144.768Z" fill="#E26160"/>
<path d="M159.599 144.768H142.344C142.279 144.77 142.214 144.758 142.154 144.734C142.094 144.71 142.039 144.675 141.993 144.629C141.946 144.584 141.909 144.53 141.884 144.47C141.859 144.41 141.846 144.346 141.846 144.281C141.846 144.149 141.899 144.023 141.992 143.929C142.085 143.836 142.212 143.784 142.344 143.784H159.599C159.729 143.786 159.853 143.84 159.944 143.933C160.035 144.026 160.086 144.151 160.086 144.281C160.086 144.41 160.034 144.534 159.943 144.626C159.852 144.717 159.728 144.768 159.599 144.768Z" fill="#E26160"/>
<path d="M85.9096 151.985H76.7746C76.64 151.985 76.5109 151.932 76.4157 151.836C76.3206 151.741 76.2671 151.612 76.2671 151.478C76.2671 151.343 76.3206 151.214 76.4157 151.119C76.5109 151.023 76.64 150.97 76.7746 150.97H85.9096C86.0442 150.97 86.1733 151.023 86.2684 151.119C86.3636 151.214 86.4171 151.343 86.4171 151.478C86.4171 151.612 86.3636 151.741 86.2684 151.836C86.1733 151.932 86.0442 151.985 85.9096 151.985Z" fill="#F9FFFD"/>
<path d="M133.523 151.985H93.4917C93.3571 151.985 93.228 151.932 93.1328 151.836C93.0376 151.741 92.9842 151.612 92.9842 151.478C92.9842 151.343 93.0376 151.214 93.1328 151.119C93.228 151.023 93.3571 150.97 93.4917 150.97H133.523C133.658 150.97 133.787 151.023 133.882 151.119C133.977 151.214 134.031 151.343 134.031 151.478C134.031 151.612 133.977 151.741 133.882 151.836C133.787 151.932 133.658 151.985 133.523 151.985Z" fill="#E26160"/>
<path d="M94.0195 159.212H76.7645C76.6299 159.212 76.5008 159.158 76.4056 159.063C76.3104 158.968 76.257 158.839 76.257 158.704C76.257 158.57 76.3104 158.441 76.4056 158.345C76.5008 158.25 76.6299 158.197 76.7645 158.197H94.0195C94.1541 158.197 94.2831 158.25 94.3783 158.345C94.4735 158.441 94.527 158.57 94.527 158.704C94.527 158.839 94.4735 158.968 94.3783 159.063C94.2831 159.158 94.1541 159.212 94.0195 159.212Z" fill="#F9FFFD"/>
<path d="M113.771 166.428H79.2614C79.1965 166.428 79.1323 166.416 79.0725 166.39C79.0128 166.365 78.9586 166.329 78.9132 166.282C78.8678 166.236 78.8322 166.181 78.8083 166.121C78.7844 166.06 78.7728 165.996 78.7742 165.931C78.7728 165.867 78.7844 165.803 78.8084 165.743C78.8324 165.683 78.8683 165.629 78.9138 165.584C78.9593 165.538 79.0136 165.502 79.0733 165.478C79.133 165.454 79.197 165.443 79.2614 165.444H113.771C113.836 165.443 113.901 165.454 113.961 165.478C114.021 165.502 114.076 165.538 114.122 165.583C114.169 165.628 114.206 165.683 114.231 165.742C114.256 165.802 114.269 165.866 114.269 165.931C114.269 166.063 114.216 166.19 114.123 166.283C114.03 166.376 113.903 166.428 113.771 166.428Z" fill="#F9FFFD"/>
<path d="M143.45 166.428H119.486C119.421 166.428 119.357 166.416 119.297 166.39C119.237 166.365 119.183 166.329 119.138 166.282C119.092 166.236 119.057 166.181 119.033 166.121C119.009 166.06 118.997 165.996 118.999 165.931C118.997 165.867 119.009 165.803 119.033 165.743C119.057 165.683 119.093 165.629 119.138 165.584C119.184 165.538 119.238 165.502 119.298 165.478C119.357 165.454 119.421 165.443 119.486 165.444H143.45C143.515 165.443 143.579 165.454 143.64 165.478C143.7 165.502 143.755 165.538 143.801 165.583C143.847 165.628 143.884 165.683 143.909 165.742C143.934 165.802 143.947 165.866 143.947 165.931C143.947 166.063 143.895 166.19 143.802 166.283C143.708 166.376 143.582 166.428 143.45 166.428Z" fill="#E26160"/>
<path d="M176.549 166.428H146.881C146.816 166.428 146.752 166.416 146.692 166.39C146.632 166.365 146.578 166.329 146.533 166.282C146.487 166.236 146.451 166.181 146.428 166.121C146.404 166.06 146.392 165.996 146.393 165.931C146.392 165.867 146.404 165.803 146.428 165.743C146.452 165.683 146.488 165.629 146.533 165.584C146.579 165.538 146.633 165.502 146.693 165.478C146.752 165.454 146.816 165.443 146.881 165.444H176.549C176.678 165.444 176.802 165.495 176.894 165.587C176.985 165.678 177.036 165.802 177.036 165.931C177.036 166.061 176.985 166.186 176.894 166.279C176.803 166.372 176.679 166.426 176.549 166.428Z" fill="#E26160"/>
<path d="M131.047 173.645H80.8041C80.6722 173.645 80.5457 173.593 80.4525 173.499C80.3592 173.406 80.3068 173.28 80.3068 173.148C80.3068 173.083 80.3197 173.019 80.3448 172.959C80.3699 172.899 80.4067 172.845 80.4531 172.8C80.4994 172.754 80.5543 172.719 80.6146 172.695C80.6749 172.671 80.7393 172.659 80.8041 172.661H131.047C131.111 172.659 131.176 172.671 131.236 172.695C131.296 172.719 131.351 172.754 131.398 172.8C131.444 172.845 131.481 172.899 131.506 172.959C131.531 173.019 131.544 173.083 131.544 173.148C131.544 173.28 131.492 173.406 131.398 173.499C131.305 173.593 131.179 173.645 131.047 173.645Z" fill="#F9FFFD"/>
<path d="M157.081 173.645H134.477C134.345 173.645 134.219 173.593 134.126 173.499C134.032 173.406 133.98 173.28 133.98 173.148C133.98 173.083 133.993 173.019 134.018 172.959C134.043 172.899 134.08 172.845 134.126 172.8C134.173 172.754 134.227 172.719 134.288 172.695C134.348 172.671 134.413 172.659 134.477 172.661H157.081C157.146 172.659 157.21 172.671 157.269 172.695C157.329 172.719 157.383 172.755 157.429 172.8C157.474 172.846 157.51 172.9 157.534 172.96C157.558 173.019 157.57 173.083 157.569 173.148C157.57 173.213 157.558 173.277 157.534 173.337C157.511 173.398 157.475 173.453 157.43 173.499C157.384 173.545 157.33 173.582 157.27 173.607C157.21 173.632 157.146 173.645 157.081 173.645Z" fill="#E26160"/>
<path d="M228.121 173.645H160.908C160.778 173.642 160.654 173.589 160.563 173.496C160.472 173.403 160.421 173.278 160.421 173.148C160.421 173.019 160.472 172.895 160.563 172.803C160.655 172.712 160.779 172.661 160.908 172.661H228.121C228.186 172.659 228.251 172.671 228.311 172.695C228.371 172.719 228.426 172.754 228.472 172.8C228.519 172.845 228.555 172.899 228.581 172.959C228.606 173.019 228.619 173.083 228.619 173.148C228.619 173.28 228.566 173.406 228.473 173.499C228.38 173.593 228.253 173.645 228.121 173.645Z" fill="#E26160"/>
<path d="M104.362 180.862H80.6012C80.4666 180.862 80.3375 180.808 80.2423 180.713C80.1471 180.618 80.0937 180.489 80.0937 180.354C80.0937 180.22 80.1471 180.091 80.2423 179.995C80.3375 179.9 80.4666 179.847 80.6012 179.847H104.362C104.497 179.847 104.626 179.9 104.721 179.995C104.816 180.091 104.87 180.22 104.87 180.354C104.87 180.489 104.816 180.618 104.721 180.713C104.626 180.808 104.497 180.862 104.362 180.862Z" fill="#F9FFFD"/>
<path d="M126.591 180.862H109.092C108.958 180.862 108.829 180.808 108.733 180.713C108.638 180.618 108.585 180.489 108.585 180.354C108.585 180.22 108.638 180.091 108.733 179.995C108.829 179.9 108.958 179.847 109.092 179.847H126.591C126.725 179.847 126.854 179.9 126.95 179.995C127.045 180.091 127.098 180.22 127.098 180.354C127.098 180.489 127.045 180.618 126.95 180.713C126.854 180.808 126.725 180.862 126.591 180.862Z" fill="#E26160"/>
<path d="M148.799 180.862H131.3C131.166 180.862 131.037 180.808 130.942 180.713C130.846 180.618 130.793 180.489 130.793 180.354C130.793 180.22 130.846 180.091 130.942 179.995C131.037 179.9 131.166 179.847 131.3 179.847H148.799C148.934 179.847 149.063 179.9 149.158 179.995C149.253 180.091 149.307 180.22 149.307 180.354C149.307 180.489 149.253 180.618 149.158 180.713C149.063 180.808 148.934 180.862 148.799 180.862Z" fill="#E26160"/>
<path d="M122.612 188.078H80.6011C80.5363 188.08 80.4719 188.068 80.4116 188.044C80.3513 188.02 80.2964 187.985 80.2501 187.939C80.2037 187.894 80.1669 187.84 80.1418 187.78C80.1167 187.72 80.1038 187.656 80.1038 187.591C80.1038 187.459 80.1562 187.333 80.2495 187.24C80.3427 187.146 80.4692 187.094 80.6011 187.094H122.612C122.744 187.094 122.87 187.146 122.964 187.24C123.057 187.333 123.109 187.459 123.109 187.591C123.109 187.656 123.096 187.72 123.071 187.78C123.046 187.84 123.009 187.894 122.963 187.939C122.917 187.985 122.862 188.02 122.802 188.044C122.741 188.068 122.677 188.08 122.612 188.078Z" fill="#F9FFFD"/>
<path d="M148.799 188.078H127.789C127.724 188.08 127.66 188.068 127.6 188.044C127.541 188.02 127.486 187.984 127.441 187.939C127.395 187.893 127.36 187.839 127.336 187.779C127.312 187.72 127.3 187.656 127.301 187.591C127.3 187.526 127.312 187.462 127.335 187.402C127.359 187.341 127.395 187.286 127.44 187.24C127.486 187.194 127.54 187.157 127.6 187.132C127.659 187.107 127.724 187.094 127.789 187.094H148.799C148.864 187.094 148.928 187.107 148.988 187.132C149.048 187.157 149.102 187.194 149.147 187.24C149.193 187.286 149.228 187.341 149.252 187.402C149.276 187.462 149.288 187.526 149.286 187.591C149.288 187.656 149.276 187.72 149.252 187.779C149.228 187.839 149.192 187.893 149.147 187.939C149.101 187.984 149.047 188.02 148.987 188.044C148.927 188.068 148.863 188.08 148.799 188.078Z" fill="#E26160"/>
<path d="M185.948 188.078H153.955C153.891 188.08 153.827 188.068 153.767 188.044C153.707 188.02 153.653 187.984 153.608 187.939C153.562 187.893 153.526 187.839 153.502 187.779C153.478 187.72 153.467 187.656 153.468 187.591C153.467 187.526 153.478 187.462 153.502 187.402C153.526 187.341 153.562 187.286 153.607 187.24C153.652 187.194 153.707 187.157 153.766 187.132C153.826 187.107 153.89 187.094 153.955 187.094H185.948C186.013 187.094 186.078 187.107 186.138 187.132C186.199 187.157 186.253 187.193 186.3 187.24C186.346 187.286 186.382 187.341 186.407 187.401C186.432 187.461 186.445 187.526 186.445 187.591C186.445 187.656 186.432 187.72 186.407 187.78C186.382 187.84 186.345 187.894 186.299 187.939C186.253 187.985 186.198 188.02 186.138 188.044C186.077 188.068 186.013 188.08 185.948 188.078Z" fill="#E26160"/>
<path d="M221.27 188.078H189.318C189.253 188.08 189.189 188.068 189.128 188.044C189.068 188.02 189.013 187.985 188.967 187.939C188.92 187.894 188.884 187.84 188.858 187.78C188.833 187.72 188.82 187.656 188.82 187.591C188.82 187.459 188.873 187.333 188.966 187.24C189.059 187.146 189.186 187.094 189.318 187.094H221.27C221.402 187.094 221.528 187.146 221.622 187.24C221.715 187.333 221.767 187.459 221.767 187.591C221.767 187.656 221.754 187.72 221.729 187.78C221.704 187.84 221.667 187.894 221.621 187.939C221.575 187.985 221.52 188.02 221.46 188.044C221.399 188.068 221.335 188.08 221.27 188.078Z" fill="#E26160"/>
<path d="M116.289 195.295H91.2282C91.1634 195.296 91.0989 195.285 91.0386 195.261C90.9784 195.237 90.9234 195.201 90.8771 195.156C90.8308 195.111 90.794 195.056 90.7689 194.997C90.7438 194.937 90.7308 194.873 90.7309 194.808C90.7309 194.743 90.7437 194.678 90.7687 194.618C90.7937 194.557 90.8303 194.502 90.8765 194.456C90.9227 194.41 90.9775 194.373 91.0379 194.348C91.0982 194.323 91.1629 194.311 91.2282 194.311H116.289C116.353 194.31 116.418 194.323 116.477 194.349C116.537 194.374 116.591 194.41 116.637 194.457C116.682 194.503 116.718 194.558 116.742 194.618C116.765 194.679 116.777 194.743 116.776 194.808C116.777 194.872 116.765 194.936 116.741 194.996C116.717 195.056 116.682 195.11 116.636 195.155C116.591 195.201 116.536 195.237 116.477 195.261C116.417 195.285 116.353 195.296 116.289 195.295Z" fill="#F9FFFD"/>
<path d="M146.048 195.295H120.988C120.924 195.296 120.86 195.285 120.8 195.261C120.74 195.237 120.686 195.201 120.64 195.155C120.595 195.11 120.559 195.056 120.535 194.996C120.511 194.936 120.499 194.872 120.501 194.808C120.499 194.743 120.511 194.679 120.535 194.618C120.559 194.558 120.594 194.503 120.64 194.457C120.685 194.41 120.739 194.374 120.799 194.349C120.859 194.323 120.923 194.31 120.988 194.311H146.048C146.114 194.311 146.178 194.323 146.239 194.348C146.299 194.373 146.354 194.41 146.4 194.456C146.446 194.502 146.483 194.557 146.508 194.618C146.533 194.678 146.546 194.743 146.546 194.808C146.546 194.873 146.533 194.937 146.508 194.997C146.483 195.056 146.446 195.111 146.399 195.156C146.353 195.201 146.298 195.237 146.238 195.261C146.178 195.285 146.113 195.296 146.048 195.295Z" fill="#E26160"/>
<path d="M176.021 195.295H150.961C150.896 195.296 150.832 195.285 150.771 195.261C150.711 195.237 150.656 195.201 150.61 195.156C150.564 195.111 150.527 195.056 150.502 194.997C150.477 194.937 150.464 194.873 150.464 194.808C150.464 194.743 150.476 194.678 150.501 194.618C150.526 194.557 150.563 194.502 150.609 194.456C150.655 194.41 150.71 194.373 150.771 194.348C150.831 194.323 150.896 194.311 150.961 194.311H176.021C176.086 194.31 176.15 194.323 176.21 194.349C176.27 194.374 176.324 194.41 176.369 194.457C176.415 194.503 176.45 194.558 176.474 194.618C176.498 194.679 176.51 194.743 176.508 194.808C176.51 194.872 176.498 194.936 176.474 194.996C176.45 195.056 176.414 195.11 176.369 195.155C176.323 195.201 176.269 195.237 176.209 195.261C176.15 195.285 176.086 195.296 176.021 195.295Z" fill="#E26160"/>
<path d="M207.06 196.107H181.99C181.855 196.107 181.726 196.054 181.631 195.958C181.535 195.863 181.482 195.734 181.482 195.6C181.482 195.465 181.535 195.336 181.631 195.241C181.726 195.146 181.855 195.092 181.99 195.092H207.06C207.195 195.092 207.324 195.146 207.419 195.241C207.514 195.336 207.568 195.465 207.568 195.6C207.568 195.734 207.514 195.863 207.419 195.958C207.324 196.054 207.195 196.107 207.06 196.107Z" fill="#E26160"/>
<path d="M112.229 202.512H94.9736C94.9092 202.513 94.8452 202.501 94.7855 202.477C94.7257 202.453 94.6715 202.418 94.626 202.372C94.5804 202.327 94.5446 202.272 94.5206 202.213C94.4966 202.153 94.485 202.089 94.4863 202.025C94.485 201.96 94.4966 201.895 94.5205 201.835C94.5444 201.775 94.58 201.72 94.6254 201.673C94.6708 201.627 94.725 201.59 94.7847 201.565C94.8445 201.54 94.9087 201.527 94.9736 201.527H112.229C112.36 201.527 112.487 201.58 112.58 201.673C112.674 201.766 112.726 201.893 112.726 202.025C112.726 202.089 112.713 202.154 112.688 202.213C112.663 202.273 112.626 202.327 112.58 202.373C112.533 202.418 112.478 202.454 112.418 202.478C112.358 202.501 112.293 202.513 112.229 202.512Z" fill="#F9FFFD"/>
<path d="M133.564 202.512H116.309C116.244 202.513 116.18 202.501 116.119 202.478C116.059 202.454 116.004 202.418 115.958 202.373C115.911 202.327 115.875 202.273 115.85 202.213C115.824 202.154 115.811 202.089 115.811 202.025C115.811 201.893 115.864 201.766 115.957 201.673C116.05 201.58 116.177 201.527 116.309 201.527H133.564C133.629 201.527 133.693 201.54 133.753 201.565C133.812 201.59 133.867 201.627 133.912 201.673C133.957 201.72 133.993 201.775 134.017 201.835C134.041 201.895 134.052 201.96 134.051 202.025C134.052 202.089 134.041 202.153 134.017 202.213C133.993 202.272 133.957 202.327 133.911 202.372C133.866 202.418 133.812 202.453 133.752 202.477C133.692 202.501 133.628 202.513 133.564 202.512Z" fill="#E26160"/>
<path d="M173.453 203.243L137.786 202.512C137.721 202.512 137.657 202.499 137.597 202.474C137.538 202.449 137.483 202.412 137.438 202.365C137.393 202.319 137.357 202.264 137.333 202.204C137.309 202.144 137.298 202.079 137.299 202.014C137.298 201.948 137.31 201.882 137.335 201.821C137.36 201.76 137.398 201.705 137.446 201.659C137.493 201.613 137.55 201.578 137.612 201.555C137.674 201.532 137.741 201.523 137.807 201.527L173.474 202.258C173.608 202.258 173.737 202.311 173.833 202.407C173.928 202.502 173.981 202.631 173.981 202.765C173.981 202.9 173.928 203.029 173.833 203.124C173.737 203.219 173.608 203.273 173.474 203.273L173.453 203.243Z" fill="#E26160"/>
<path d="M186.76 123.118H163.415C163.35 123.118 163.286 123.105 163.226 123.08C163.166 123.055 163.112 123.018 163.067 122.972C163.021 122.926 162.986 122.871 162.962 122.811C162.938 122.75 162.926 122.686 162.928 122.621C162.926 122.557 162.938 122.493 162.962 122.433C162.986 122.373 163.022 122.319 163.067 122.273C163.113 122.228 163.167 122.192 163.227 122.168C163.287 122.144 163.351 122.132 163.415 122.134H186.76C186.825 122.132 186.889 122.144 186.95 122.168C187.01 122.192 187.065 122.228 187.111 122.273C187.157 122.318 187.194 122.372 187.219 122.432C187.244 122.492 187.257 122.556 187.257 122.621C187.257 122.753 187.205 122.879 187.112 122.973C187.018 123.066 186.892 123.118 186.76 123.118Z" fill="#E26160"/>
<path d="M204.015 123.189C199.447 123.189 196.057 123.189 195.895 123.088C195.833 123.071 195.775 123.041 195.724 123.002C195.674 122.962 195.631 122.912 195.6 122.856C195.536 122.743 195.52 122.609 195.555 122.484C195.59 122.359 195.673 122.253 195.787 122.189C195.9 122.125 196.034 122.109 196.159 122.144C197.052 122.256 212.46 122.195 222.65 122.144C222.715 122.143 222.78 122.154 222.84 122.178C222.9 122.202 222.955 122.238 223.001 122.283C223.048 122.328 223.085 122.383 223.11 122.442C223.135 122.502 223.148 122.566 223.148 122.631C223.148 122.763 223.095 122.89 223.002 122.983C222.909 123.076 222.782 123.129 222.65 123.129C217.21 123.149 209.699 123.189 204.015 123.189Z" fill="#E26160"/>
<path d="M183.035 108.685H149.134C148.999 108.685 148.87 108.632 148.775 108.536C148.68 108.441 148.626 108.312 148.626 108.178C148.626 108.043 148.68 107.914 148.775 107.819C148.87 107.724 148.999 107.67 149.134 107.67H183.035C183.17 107.67 183.299 107.724 183.394 107.819C183.489 107.914 183.542 108.043 183.542 108.178C183.542 108.312 183.489 108.441 183.394 108.536C183.299 108.632 183.17 108.685 183.035 108.685Z" fill="#E26160"/>
<path d="M223.584 108.685H189.805C189.67 108.685 189.541 108.632 189.446 108.536C189.351 108.441 189.297 108.312 189.297 108.178C189.297 108.043 189.351 107.914 189.446 107.819C189.541 107.724 189.67 107.67 189.805 107.67H223.544C223.678 107.67 223.807 107.724 223.902 107.819C223.998 107.914 224.051 108.043 224.051 108.178C224.051 108.312 223.998 108.441 223.902 108.536C223.807 108.632 223.678 108.685 223.544 108.685H223.584Z" fill="#E26160"/>
<path d="M151.235 101.499C144.972 101.499 140.202 101.499 140.009 101.499C139.88 101.477 139.766 101.404 139.69 101.298C139.614 101.192 139.582 101.06 139.603 100.931C139.623 100.805 139.692 100.691 139.794 100.616C139.897 100.54 140.025 100.507 140.151 100.525C141.014 100.585 166.044 100.525 179.178 100.525C179.31 100.525 179.436 100.577 179.53 100.67C179.623 100.763 179.675 100.89 179.675 101.022C179.675 101.087 179.662 101.151 179.637 101.211C179.612 101.27 179.575 101.325 179.529 101.37C179.483 101.415 179.428 101.451 179.368 101.475C179.307 101.499 179.243 101.51 179.178 101.509C173.667 101.479 160.715 101.499 151.235 101.499Z" fill="#E26160"/>
<path d="M188.323 101.489C188.232 101.487 188.144 101.459 188.069 101.409C187.993 101.358 187.933 101.288 187.897 101.205C187.847 101.079 187.847 100.939 187.896 100.813C187.945 100.687 188.039 100.584 188.161 100.525C188.557 100.332 196.443 100.311 211.587 100.525C211.716 100.53 211.839 100.584 211.929 100.676C212.02 100.769 212.072 100.892 212.074 101.022C212.074 101.087 212.061 101.151 212.036 101.211C212.011 101.27 211.974 101.325 211.928 101.37C211.882 101.415 211.827 101.451 211.766 101.475C211.706 101.499 211.642 101.51 211.577 101.509C202.756 101.418 189.348 101.337 188.516 101.509C188.451 101.521 188.384 101.514 188.323 101.489Z" fill="#F9FFFD"/>
<path d="M155.62 151.985H138.142C138.007 151.985 137.878 151.932 137.783 151.836C137.687 151.741 137.634 151.612 137.634 151.478C137.634 151.343 137.687 151.214 137.783 151.119C137.878 151.023 138.007 150.97 138.142 150.97H155.62C155.754 150.97 155.883 151.023 155.979 151.119C156.074 151.214 156.127 151.343 156.127 151.478C156.127 151.612 156.074 151.741 155.979 151.836C155.883 151.932 155.754 151.985 155.62 151.985Z" fill="#E26160"/>
<path d="M115.517 159.212H102.657C102.522 159.212 102.393 159.158 102.298 159.063C102.203 158.968 102.15 158.839 102.15 158.704C102.15 158.57 102.203 158.441 102.298 158.345C102.393 158.25 102.522 158.197 102.657 158.197H115.517C115.652 158.197 115.781 158.25 115.876 158.345C115.971 158.441 116.025 158.57 116.025 158.704C116.025 158.839 115.971 158.968 115.876 159.063C115.781 159.158 115.652 159.212 115.517 159.212Z" fill="#E26160"/>
<path d="M150.961 159.212H120.399C120.265 159.212 120.136 159.158 120.04 159.063C119.945 158.968 119.892 158.839 119.892 158.704C119.892 158.57 119.945 158.441 120.04 158.345C120.136 158.25 120.265 158.197 120.399 158.197H150.961C151.096 158.197 151.225 158.25 151.32 158.345C151.415 158.441 151.468 158.57 151.468 158.704C151.468 158.839 151.415 158.968 151.32 159.063C151.225 159.158 151.096 159.212 150.961 159.212Z" fill="#F9FFFD"/>
<path d="M216.286 159.212H157.081C156.947 159.212 156.818 159.158 156.723 159.063C156.627 158.968 156.574 158.839 156.574 158.704C156.574 158.57 156.627 158.441 156.723 158.345C156.818 158.25 156.947 158.197 157.081 158.197H216.286C216.421 158.197 216.55 158.25 216.645 158.345C216.74 158.441 216.794 158.57 216.794 158.704C216.794 158.839 216.74 158.968 216.645 159.063C216.55 159.158 216.421 159.212 216.286 159.212Z" fill="#E26160"/>
<path d="M57.855 84.7717C58.808 84.7717 59.5805 83.9992 59.5805 83.0462C59.5805 82.0932 58.808 81.3207 57.855 81.3207C56.902 81.3207 56.1295 82.0932 56.1295 83.0462C56.1295 83.9992 56.902 84.7717 57.855 84.7717Z" fill="#131318"/>
<path d="M63.9044 84.7717C64.8574 84.7717 65.6299 83.9992 65.6299 83.0462C65.6299 82.0932 64.8574 81.3207 63.9044 81.3207C62.9514 81.3207 62.1789 82.0932 62.1789 83.0462C62.1789 83.9992 62.9514 84.7717 63.9044 84.7717Z" fill="#F9FFFD"/>
<path d="M69.9538 84.7717C70.9068 84.7717 71.6793 83.9992 71.6793 83.0462C71.6793 82.0932 70.9068 81.3207 69.9538 81.3207C69.0008 81.3207 68.2283 82.0932 68.2283 83.0462C68.2283 83.9992 69.0008 84.7717 69.9538 84.7717Z" fill="#F9FFFD"/>
<path d="M182.954 245H118.39L125.687 222.751H175.656L182.954 245Z" fill="#F9FFFD"/>
<path d="M182.954 245.507H118.39C118.309 245.51 118.229 245.493 118.156 245.458C118.083 245.423 118.02 245.37 117.972 245.305C117.924 245.241 117.893 245.165 117.881 245.085C117.869 245.005 117.876 244.924 117.902 244.847L125.2 222.599C125.233 222.495 125.298 222.405 125.385 222.341C125.473 222.277 125.579 222.243 125.687 222.243H175.656C175.764 222.243 175.87 222.277 175.958 222.341C176.046 222.405 176.111 222.495 176.143 222.599L183.441 244.847C183.467 244.924 183.475 245.005 183.463 245.085C183.45 245.165 183.419 245.241 183.371 245.305C183.323 245.37 183.26 245.423 183.187 245.458C183.115 245.493 183.034 245.51 182.954 245.507ZM119.09 244.492H182.253L175.29 223.258H126.053L119.09 244.492Z" fill="#131318"/>
<path d="M188.282 245H113.061C111.329 245 109.924 246.402 109.924 248.131C109.924 249.86 111.329 251.262 113.061 251.262H188.282C190.015 251.262 191.419 249.86 191.419 248.131C191.419 246.402 190.015 245 188.282 245Z" fill="#F9FFFD"/>
<path d="M188.293 251.78H113.061C112.094 251.78 111.168 251.396 110.484 250.713C109.801 250.029 109.417 249.102 109.417 248.136C109.417 247.17 109.801 246.243 110.484 245.559C111.168 244.876 112.094 244.492 113.061 244.492H188.293C189.259 244.492 190.186 244.876 190.869 245.559C191.553 246.243 191.937 247.17 191.937 248.136C191.937 249.102 191.553 250.029 190.869 250.713C190.186 251.396 189.259 251.78 188.293 251.78ZM113.061 245.507C112.364 245.507 111.695 245.784 111.202 246.277C110.709 246.77 110.432 247.439 110.432 248.136C110.432 248.833 110.709 249.502 111.202 249.995C111.695 250.488 112.364 250.765 113.061 250.765H188.293C188.99 250.765 189.659 250.488 190.152 249.995C190.645 249.502 190.922 248.833 190.922 248.136C190.922 247.439 190.645 246.77 190.152 246.277C189.659 245.784 188.99 245.507 188.293 245.507H113.061Z" fill="#131318"/>
<path d="M120.328 239.102C121.343 238.554 177.27 228.343 177.27 228.343L175.433 222.751H125.464L120.328 239.102Z" fill="#131318"/>
<path d="M120.318 239.61C120.202 239.609 120.09 239.566 120.003 239.488C119.93 239.424 119.877 239.34 119.851 239.246C119.826 239.152 119.83 239.052 119.861 238.96L124.997 222.609C125.026 222.508 125.088 222.419 125.172 222.357C125.257 222.295 125.359 222.262 125.464 222.264H175.433C175.536 222.261 175.638 222.292 175.722 222.353C175.806 222.413 175.869 222.5 175.9 222.599L177.737 228.181C177.756 228.248 177.762 228.319 177.753 228.389C177.744 228.458 177.72 228.525 177.684 228.585C177.648 228.645 177.599 228.697 177.542 228.738C177.485 228.778 177.42 228.806 177.351 228.82C162.024 231.622 121.922 239.021 120.511 239.559C120.45 239.588 120.385 239.605 120.318 239.61ZM125.86 223.248L121.09 238.422C127.809 236.9 166.947 229.734 176.651 227.958L175.108 223.248H125.86Z" fill="#131318"/>
</svg>
